name C:\Users\u0150099\Documents\master_thesis\3dpredictsim\Results\debug\Fal_s1_mtj_sc_cspx10_oy_MTPm_k1_d01_MTJm_nl_MG_exp_table_d01_PF_Natali2010_ls146_ig21.mot
datacolumns 128
datarows 4
range 1.59658032 1.62851192
endheader
time	pelvis_tilt	pelvis_list	pelvis_rotation	pelvis_tx	pelvis_ty	pelvis_tz	hip_flexion_l	hip_adduction_l	hip_rotation_l	hip_flexion_r	hip_adduction_r	hip_rotation_r	knee_angle_l	knee_angle_r	ankle_angle_l	ankle_angle_r	subtalar_angle_l	subtalar_angle_r	mtj_angle_l	mtj_angle_r	mtp_angle_l	mtp_angle_r	lumbar_extension	lumbar_bending	lumbar_rotation	arm_flex_l	arm_add_l	arm_rot_l	arm_flex_r	arm_add_r	arm_rot_r	elbow_flex_l	elbow_flex_r	pro_sup_l	pro_sup_r	glut_med1_l/activation	glut_med2_l/activation	glut_med3_l/activation	glut_min1_l/activation	glut_min2_l/activation	glut_min3_l/activation	semimem_l/activation	semiten_l/activation	bifemlh_l/activation	bifemsh_l/activation	sar_l/activation	add_long_l/activation	add_brev_l/activation	add_mag1_l/activation	add_mag2_l/activation	add_mag3_l/activation	tfl_l/activation	pect_l/activation	grac_l/activation	glut_max1_l/activation	glut_max2_l/activation	glut_max3_l/activation	iliacus_l/activation	psoas_l/activation	quad_fem_l/activation	gem_l/activation	peri_l/activation	rect_fem_l/activation	vas_med_l/activation	vas_int_l/activation	vas_lat_l/activation	med_gas_l/activation	lat_gas_l/activation	soleus_l/activation	tib_post_l/activation	flex_dig_l/activation	flex_hal_l/activation	tib_ant_l/activation	per_brev_l/activation	per_long_l/activation	per_tert_l/activation	ext_dig_l/activation	ext_hal_l/activation	ercspn_l/activation	intobl_l/activation	extobl_l/activation	glut_med1_r/activation	glut_med2_r/activation	glut_med3_r/activation	glut_min1_r/activation	glut_min2_r/activation	glut_min3_r/activation	semimem_r/activation	semiten_r/activation	bifemlh_r/activation	bifemsh_r/activation	sar_r/activation	add_long_r/activation	add_brev_r/activation	add_mag1_r/activation	add_mag2_r/activation	add_mag3_r/activation	tfl_r/activation	pect_r/activation	grac_r/activation	glut_max1_r/activation	glut_max2_r/activation	glut_max3_r/activation	iliacus_r/activation	psoas_r/activation	quad_fem_r/activation	gem_r/activation	peri_r/activation	rect_fem_r/activation	vas_med_r/activation	vas_int_r/activation	vas_lat_r/activation	med_gas_r/activation	lat_gas_r/activation	soleus_r/activation	tib_post_r/activation	flex_dig_r/activation	flex_hal_r/activation	tib_ant_r/activation	per_brev_r/activation	per_long_r/activation	per_tert_r/activation	ext_dig_r/activation	ext_hal_r/activation	ercspn_r/activation	intobl_r/activation	extobl_r/activation	
          1.59658032	         -2.92489104	          0.91206937	         -2.94462586	          2.12345182	          0.91673369	          0.00379315	         27.27256241	          2.96303183	         -2.54736769	        -19.70665949	          3.27386743	          6.62686658	        -10.38925867	         -3.86386271	          5.81290813	         -6.83692753	         -5.53639281	         -9.62378344	         -0.32126373	         -0.61119330	          4.66974716	         28.53136999	         -3.78367988	          0.05162018	          1.13927008	         -2.92718613	        -13.49849312	          8.47048213	          3.99886351	        -13.86668822	         19.33438878	         25.23591512	         30.95666908	         86.51662706	         86.51662706	          0.05000067	          0.05000206	          0.05000075	          0.05566479	          0.05002192	          0.05000336	          0.21607502	          0.07426990	          0.38971041	          0.06005056	          0.05011700	          0.13848780	          0.14866802	          0.14017489	          0.13155165	          0.13803270	          0.05000060	          0.05961591	          0.12034097	          0.05000134	          0.05000086	          0.11317461	          0.05886894	          0.05886934	          0.11156006	          0.05885606	          0.05003938	          0.05000063	          0.05000496	          0.05000460	          0.05000341	          0.06278657	          0.05000233	          0.05002442	          0.05000137	          0.08160667	          0.05248585	          0.39489155	          0.25322327	          0.19516178	          0.14719572	          0.50318539	          0.05971885	          0.06670272	          0.09472368	          0.11313258	          0.42962365	          0.06931447	          0.05887026	          0.53741337	          0.17467115	          0.09014023	          0.05000384	          0.05000074	          0.05000060	          0.08160773	          0.11313988	          0.05000166	          0.05000121	          0.05000231	          0.05000797	          0.05000235	          0.53080338	          0.05004881	          0.05000815	          0.05002367	          0.05000893	          0.05000612	          0.57933517	          0.84559881	          0.05000286	          0.05003063	          0.05886916	          0.34507720	          0.05000211	          0.05000207	          0.05000210	          0.34665997	          0.46296692	          0.27801186	          0.49015915	          0.32215598	          0.50997563	          0.05000010	          0.08160926	          0.33577914	          0.05000046	          0.05000019	          0.21540448	          0.05000015	          0.05000013	          0.05000019	
          1.60722419	         -2.92936979	          1.00978288	         -3.20402075	          2.13971761	          0.91567546	          0.00367968	         26.99113704	          3.38644384	         -2.47066479	        -19.63852720	          3.02246436	          6.53639792	        -10.22643403	         -5.62245070	          5.55757919	         -7.03262351	         -5.81472725	         -8.73121048	          0.01856990	         -1.79293342	          3.78850590	         31.34471604	         -3.66928194	         -0.14980235	          1.25957229	         -3.52688014	        -13.46640102	          7.80581926	          3.79474480	        -13.82082755	         19.38278979	         24.52538218	         32.07148826	         86.51662706	         86.51662706	          0.05000608	          0.05000114	          0.05886994	          0.05000035	          0.05000050	          0.05000415	          0.20159780	          0.06931319	          0.36799983	          0.06931282	          0.05000299	          0.11762298	          0.14974870	          0.11934173	          0.14474362	          0.15751109	          0.05886925	          0.05065613	          0.11630409	          0.05887079	          0.05890233	          0.13358310	          0.05000032	          0.05000038	          0.14256207	          0.05000232	          0.05000061	          0.05000023	          0.05000111	          0.05000105	          0.05000100	          0.05886956	          0.05708705	          0.05000036	          0.06931310	          0.06931276	          0.06931254	          0.40522466	          0.29722538	          0.23914973	          0.12501954	          0.51289223	          0.05644521	          0.05818528	          0.08045176	          0.09608713	          0.42718920	          0.05887095	          0.05000038	          0.51330896	          0.14835369	          0.07655895	          0.05000602	          0.05000071	          0.05000046	          0.06931203	          0.09609362	          0.07124144	          0.05000061	          0.05000144	          0.05000575	          0.05000485	          0.45090394	          0.05000454	          0.05000101	          0.05000546	          0.05000321	          0.05000316	          0.49345275	          0.83161181	          0.05000021	          0.05000057	          0.05000014	          0.32669573	          0.07851548	          0.07066232	          0.06106714	          0.29442897	          0.39321228	          0.26649316	          0.44533237	          0.27370262	          0.50291729	          0.05000004	          0.06931329	          0.28518757	          0.05000161	          0.05000017	          0.18295020	          0.05000004	          0.05000006	          0.05000017	
          1.61786805	         -2.92993775	          1.10847063	         -3.45544868	          2.15637450	          0.91468558	          0.00352959	         26.69392640	          3.79854810	         -2.37138348	        -19.49547514	          2.74531196	          6.42185144	        -10.66185005	         -7.48132728	          5.00221927	         -7.34224744	         -6.10089601	         -7.67625570	          0.32198735	         -3.20696819	          2.95979092	         34.47967932	         -3.52865120	         -0.35149776	          1.37574728	         -4.17726893	        -13.45066013	          7.34120930	          3.49027053	        -13.76092627	         19.27820425	         23.83935302	         33.23046354	         86.51662706	         86.51662706	          0.05886980	          0.05886971	          0.05000035	          0.05887011	          0.05887000	          0.05012018	          0.17122327	          0.05886999	          0.31342351	          0.05886978	          0.05000101	          0.15682713	          0.18360483	          0.10136170	          0.21322876	          0.16793915	          0.05000061	          0.05018013	          0.09878148	          0.05000121	          0.05002774	          0.17366893	          0.06948761	          0.07340669	          0.48951718	          0.16982741	          0.09168363	          0.05000152	          0.05000156	          0.05000160	          0.05000114	          0.05000022	          0.05000033	          0.05000005	          0.05886993	          0.05886969	          0.05886979	          0.43235087	          0.37024691	          0.23093459	          0.10618911	          0.56952386	          0.05000089	          0.05000010	          0.06833016	          0.08160978	          0.38747536	          0.05000099	          0.05000007	          0.43596965	          0.12600146	          0.06502405	          0.05000475	          0.05000038	          0.05000031	          0.05886899	          0.08161560	          0.11735882	          0.05287535	          0.05000224	          0.05000715	          0.05000243	          0.44981636	          0.06042601	          0.05000095	          0.05000180	          0.05000121	          0.05000150	          0.41910465	          0.72754396	          0.05000014	          0.05000056	          0.05000066	          0.31197093	          0.06674341	          0.11896844	          0.05432024	          0.25006755	          0.33396731	          0.23030222	          0.37823457	          0.23246448	          0.42714578	          0.05000004	          0.05886992	          0.24221855	          0.05000029	          0.05000007	          0.15538559	          0.05000017	          0.07818798	          0.06052575	
          1.62851192	         -2.92699875	          1.22254241	         -3.69925651	          2.17335922	          0.91371256	          0.00335283	         26.37685150	          4.15449165	         -2.26398203	        -19.27238742	          2.43510076	          6.26996074	        -11.66735999	         -9.43021001	          4.21260433	         -7.79019413	         -6.42277267	         -6.51862589	          0.60097184	         -4.84449519	          2.19033626	         37.90494138	         -3.36827609	         -0.56357133	          1.48284441	         -4.86966490	        -13.45344463	          7.05845942	          3.09589816	        -13.70131584	         19.08714530	         23.17684212	         34.45687337	         86.51662706	         86.51662706	          0.05000005	          0.05000014	          0.15008350	          0.05000026	          0.05000022	          0.05000023	          0.14542523	          0.05000021	          0.26620022	          0.05000010	          0.05290164	          0.13319852	          0.34277582	          0.33948038	          0.20069925	          0.19648457	          0.05000255	          0.08158163	          0.08389874	          0.07835959	          0.14739232	          0.21609089	          0.05901836	          0.06930949	          0.51822931	          0.14423987	          0.07787003	          0.06609750	          0.10235464	          0.10688924	          0.08199553	          0.06931337	          0.06931396	          0.06931332	          0.05000005	          0.05000016	          0.05000024	          0.53779400	          0.36373661	          0.19613990	          0.30140998	          0.59186774	          0.05000163	          0.05000002	          0.05803491	          0.06931372	          0.32909493	          0.05195532	          0.05886916	          0.37028263	          0.10701701	          0.05522735	          0.05004558	          0.05001149	          0.05354537	          0.05000034	          0.06931890	          0.20245395	          0.29180564	          0.05887131	          0.05886185	          0.06841769	          0.38204390	          0.05132362	          0.05004152	          0.05884322	          0.05886478	          0.05886722	          0.35595849	          0.64907072	          0.05886960	          0.05886671	          0.05000039	          0.26496657	          0.15682528	          0.15682449	          0.14229532	          0.21239004	          0.28364869	          0.19560273	          0.32124623	          0.19743929	          0.36278823	          0.09615806	          0.05000007	          0.20572369	          0.05000008	          0.05000010	          0.13197402	          0.06534759	          0.06931347	          0.06931314	
